<svg xmlns="http://www.w3.org/2000/svg" viewBox="0 40 1440 200">
  <path fill="#0089cc" fill-opacity="1" d="M0,64L34.3,74.7C68.6,85,137,107,206,112C274.3,117,343,107,411,101.3C480,96,549,96,617,117.3C685.7,139,754,181,823,181.3C891.4,181,960,139,1029,149.3C1097.1,160,1166,224,1234,261.3C1302.9,299,1371,309,1406,314.7L1440,320L1440,320L1405.7,320C1371.4,320,1303,320,1234,320C1165.7,320,1097,320,1029,320C960,320,891,320,823,320C754.3,320,686,320,617,320C548.6,320,480,320,411,320C342.9,320,274,320,206,320C137.1,320,69,320,34,320L0,320Z"></path>
</svg>