<?xml version="1.0" standalone="no"?><svg xmlns="http://www.w3.org/2000/svg" viewBox="0 0 1440 320"><path fill="#e75227" fill-opacity="1" d="M0,0L24,21.3C48,43,96,85,144,96C192,107,240,85,288,90.7C336,96,384,128,432,165.3C480,203,528,245,576,256C624,267,672,245,720,224C768,203,816,181,864,176C912,171,960,181,1008,192C1056,203,1104,213,1152,197.3C1200,181,1248,139,1296,106.7C1344,75,1392,53,1416,42.7L1440,32L1440,320L1416,320C1392,320,1344,320,1296,320C1248,320,1200,320,1152,320C1104,320,1056,320,1008,320C960,320,912,320,864,320C816,320,768,320,720,320C672,320,624,320,576,320C528,320,480,320,432,320C384,320,336,320,288,320C240,320,192,320,144,320C96,320,48,320,24,320L0,320Z"></path></svg>