<?xml version="1.0" standalone="no"?><svg xmlns="http://www.w3.org/2000/svg" viewBox="0 0 1440 320"><path fill="#f590b2" fill-opacity="1" d="M0,96L30,128C60,160,120,224,180,250.7C240,277,300,267,360,218.7C420,171,480,85,540,69.3C600,53,660,107,720,149.3C780,192,840,224,900,240C960,256,1020,256,1080,224C1140,192,1200,128,1260,85.3C1320,43,1380,21,1410,10.7L1440,0L1440,320L1410,320C1380,320,1320,320,1260,320C1200,320,1140,320,1080,320C1020,320,960,320,900,320C840,320,780,320,720,320C660,320,600,320,540,320C480,320,420,320,360,320C300,320,240,320,180,320C120,320,60,320,30,320L0,320Z"></path></svg>